<?xml version="1.0" standalone="no"?>
<!DOCTYPE svg PUBLIC "-//W3C//DTD SVG 20010904//EN"
 "http://www.w3.org/TR/2001/REC-SVG-20010904/DTD/svg10.dtd">
<svg version="1.0" xmlns="http://www.w3.org/2000/svg"
 width="210.000000pt" height="106.000000pt" viewBox="0 0 210.000000 106.000000"
 preserveAspectRatio="xMidYMid meet">

<g transform="translate(0.000000,106.000000) scale(0.100000,-0.100000)"
fill="#000000" stroke="none">
<path class="swing-i-dot" d="M1395 1040 c-38 -42 18 -105 61 -70 19 17 18 76 -2 84 -26 10 -40 7
-59 -14z m32 -16 c8 -21 -13 -42 -28 -27 -13 13 -5 43 11 43 6 0 13 -7 17 -16z"/>
<path d="M780 994 c-112 -67 -154 -133 -148 -234 3 -58 12 -85 78 -220 65
-135 75 -162 78 -219 3 -57 0 -73 -25 -121 -55 -104 -171 -165 -313 -164 -111
0 -221 54 -281 137 -41 57 -53 106 -39 171 27 131 129 205 285 208 102 2 173
-50 189 -138 10 -51 30 -56 24 -6 -14 104 -104 166 -238 167 -81 0 -125 -17
-189 -71 -147 -123 -111 -352 69 -444 71 -36 166 -52 286 -48 104 3 114 5 187
41 86 42 131 90 171 178 58 128 45 213 -54 364 -108 163 -115 178 -115 266 0
88 15 114 71 125 41 7 60 -6 69 -47 8 -34 5 -33 50 -12 40 19 43 31 17 63 -30
37 -114 39 -172 4z m-12 -402 c95 -206 104 -247 76 -343 -12 -42 -28 -66 -75
-111 -66 -66 -100 -79 -46 -18 65 71 82 114 82 210 0 83 -2 88 -63 219 -71
151 -86 205 -76 270 l8 46 16 -70 c9 -38 44 -130 78 -203z"/>
<path class="swing-w" d="M1076 881 c-2 -3 -13 -35 -25 -71 -11 -36 -30 -79 -41 -97 -22 -38
-64 -68 -80 -58 -15 9 -4 71 26 152 13 35 24 66 24 69 0 3 -19 4 -42 2 l-41
-3 -23 -69 c-13 -38 -27 -90 -30 -117 -5 -41 -4 -48 14 -58 39 -21 71 -13 117
30 44 41 45 41 45 16 0 -116 258 -34 286 91 3 15 7 33 10 40 2 7 1 26 -3 42
-11 59 -81 48 -108 -17 -16 -38 -20 -93 -7 -93 5 0 7 13 4 28 -4 31 19 59 39
47 16 -11 5 -78 -20 -119 -12 -18 -38 -42 -58 -51 -72 -35 -84 11 -37 148 13
39 24 74 24 78 0 8 -70 18 -74 10z m-173 -102 c-12 -45 -23 -95 -23 -111 0
-19 -4 -28 -12 -25 -8 2 -12 19 -11 43 4 58 41 174 57 174 10 0 7 -19 -11 -81z
m197 69 c0 -7 -9 -37 -20 -67 -12 -29 -21 -73 -22 -98 0 -28 -5 -42 -12 -40
-17 6 -10 80 14 153 19 58 40 84 40 52z m178 -43 c2 -17 -3 -39 -11 -49 -13
-18 -14 -17 -10 11 3 17 0 41 -7 53 -10 19 -9 21 7 18 12 -2 19 -13 21 -33z"/>
<path class="swing-i" d="M1356 833 c-14 -44 -24 -85 -40 -155 -13 -58 61 -78 121 -32 18 14
33 30 33 36 0 6 -11 1 -25 -12 -43 -40 -49 -16 -25 91 12 52 23 100 25 107 3
8 -8 12 -35 12 -37 0 -39 -2 -54 -47z m23 -31 c-11 -31 -24 -82 -28 -112 -6
-42 -10 -51 -16 -36 -6 13 0 52 15 110 26 103 28 108 40 101 5 -3 0 -31 -11
-63z"/>
<path class="swing-ng" d="M1684 866 c-28 -12 -45 -30 -82 -82 -12 -17 -12 -17 -7 6 19 87 21
80 -21 80 l-39 0 -29 -107 c-16 -60 -31 -116 -33 -125 -4 -15 1 -18 29 -18 33
0 36 3 76 83 79 160 147 191 91 41 -25 -66 -27 -103 -8 -115 24 -15 75 -10
102 11 21 17 27 18 34 7 23 -39 80 -42 132 -8 22 14 23 14 18 -4 -4 -11 -15
-49 -26 -85 -19 -62 -50 -110 -71 -110 -16 0 -28 34 -20 56 4 11 25 35 46 54
l38 33 -29 -7 c-44 -11 -72 -32 -90 -67 -39 -74 38 -114 131 -68 34 16 49 32
68 72 24 49 88 259 102 333 6 34 6 34 -34 34 -32 0 -41 -4 -45 -21 l-6 -20
-20 20 c-29 29 -99 29 -135 0 -34 -27 -65 -87 -73 -144 -6 -49 -27 -75 -44
-58 -8 8 -3 30 15 76 31 77 33 108 8 130 -22 20 -37 21 -78 3z m337 -160 c-32
-133 -60 -203 -92 -232 -24 -22 -24 -8 0 53 10 26 36 109 56 183 21 74 43 141
49 149 22 29 17 -28 -13 -153z m-461 135 c0 -26 -49 -183 -61 -196 -14 -14
-12 1 17 113 25 94 44 130 44 83z m312 -14 c-48 -51 -65 -134 -36 -175 17 -25
3 -30 -19 -7 -40 39 -17 150 41 196 32 25 42 16 14 -14z m102 27 c11 -4 16
-19 16 -48 -1 -74 -56 -162 -97 -154 -15 3 -18 13 -16 61 2 60 28 117 61 137
21 12 17 11 36 4z m-246 -31 c2 -11 -8 -53 -22 -92 -14 -40 -23 -78 -19 -86 3
-8 0 -15 -6 -15 -23 0 -24 34 -3 99 12 37 22 80 22 95 0 32 23 31 28 -1z"/>
<path class="groove-g" d="M17 852 c-10 -10 -17 -26 -17 -35 0 -23 36 -57 60 -57 16 0 20 7 20
30 0 17 -4 30 -9 30 -5 0 -7 -9 -4 -21 5 -17 2 -20 -18 -17 -33 4 -39 52 -9
68 11 6 25 8 30 5 6 -3 10 -1 10 4 0 18 -46 12 -63 -7z"/>
<path class="groove-r" d="M100 814 c0 -53 1 -56 14 -38 14 18 15 18 21 2 4 -10 11 -18 17 -18
5 0 5 6 0 17 -7 11 -6 23 1 35 15 23 -1 52 -32 56 -19 3 -21 -1 -21 -54z m35
16 c0 -13 -6 -25 -12 -27 -9 -3 -13 6 -13 27 0 21 4 30 13 28 6 -3 12 -15 12
-28z"/>
<path class="groove-o-1" d="M184 845 c-13 -21 -15 -31 -6 -50 21 -45 93 -42 105 4 15 59 -65 97
-99 46z m67 5 c39 -21 13 -75 -33 -68 -26 3 -37 41 -18 64 15 17 25 18 51 4z"/>
<path class="groove-o-2" d="M316 854 c-21 -21 -20 -57 2 -77 24 -22 55 -21 75 1 34 37 11 92 -38
92 -13 0 -31 -7 -39 -16z m68 -13 c23 -25 6 -61 -29 -61 -35 0 -52 36 -29 61
9 10 22 19 29 19 7 0 20 -9 29 -19z"/>
<path class="groove-v" d="M433 815 c11 -31 23 -52 27 -48 13 15 39 103 30 103 -5 0 -11 -13
-15 -30 -10 -43 -22 -45 -35 -5 -6 19 -15 35 -20 35 -4 0 1 -25 13 -55z"/>
<path class="groove-e" d="M510 815 c0 -52 1 -55 25 -55 14 0 25 5 25 10 0 6 -7 10 -15 10 -21
0 -19 18 3 23 16 4 16 5 0 6 -12 1 -18 9 -18 25 0 15 7 26 18 29 10 3 6 5 -10
6 -27 1 -28 0 -28 -54z"/>
<path class="juice-j" d="M270 700 c0 -40 -3 -50 -17 -50 -13 0 -14 -3 -5 -12 8 -8 15 -8 27 2
17 14 22 110 5 110 -5 0 -10 -22 -10 -50z"/>
<path class="groove-u" d="M312 698 c-2 -59 8 -73 41 -56 13 7 17 20 15 61 l-1 52 -6 -50 c-4
-35 -10 -50 -21 -50 -11 0 -17 15 -21 50 l-6 50 -1 -57z"/>
<path class="groove-i" d="M390 691 c0 -34 4 -60 8 -57 11 6 10 102 -1 112 -4 4 -7 -21 -7 -55z"/>
<path class="groove-c" d="M450 737 c-37 -18 -40 -70 -6 -92 17 -11 32 -14 43 -9 15 6 13 8 -10
12 -55 7 -57 82 -1 82 14 0 22 4 19 10 -8 13 -15 12 -45 -3z"/>
<path class="groove-e" d="M514 736 c-3 -7 -4 -33 -2 -57 2 -37 7 -45 26 -47 12 -2 22 1 22 7 0
6 -7 11 -15 11 -8 0 -15 5 -15 10 0 6 7 10 15 10 8 0 15 5 15 10 0 6 -7 10
-15 10 -8 0 -15 9 -15 20 0 11 7 20 15 20 8 0 15 5 15 10 0 15 -40 12 -46 -4z"/>
</g>
</svg>
